<mxfile host="Electron" modified="2024-07-05T03:30:39.387Z" agent="Mozilla/5.0 (X11; Linux x86_64) AppleWebKit/537.36 (KHTML, like Gecko) draw.io/24.2.5 Chrome/120.0.6099.109 Electron/28.1.0 Safari/537.36" etag="ZLLhFEAPG83hP-I5grJ_" version="24.2.5" type="device">
  <diagram name="Page-1" id="UswiV8kJdXYd4FI-y-HA">
    <mxGraphModel dx="1434" dy="835" grid="1" gridSize="10" guides="1" tooltips="1" connect="1" arrows="1" fold="1" page="1" pageScale="1" pageWidth="850" pageHeight="1100" math="0" shadow="0">
      <root>
        <mxCell id="0" />
        <mxCell id="1" parent="0" />
        <mxCell id="gYxAc6ppp29BtzVol7dR-1" value="1" style="rounded=0;whiteSpace=wrap;html=1;shadow=0;strokeColor=#6c8ebf;strokeWidth=1;fontFamily=Ubuntu;fontSize=16;fontStyle=0;fillColor=#dae8fc;" vertex="1" parent="1">
          <mxGeometry x="320" y="440" width="40" height="40" as="geometry" />
        </mxCell>
        <mxCell id="gYxAc6ppp29BtzVol7dR-2" value="8" style="rounded=0;whiteSpace=wrap;html=1;shadow=0;strokeColor=#6c8ebf;strokeWidth=1;fontFamily=Ubuntu;fontSize=16;fontStyle=0;fillColor=#dae8fc;" vertex="1" parent="1">
          <mxGeometry x="360" y="440" width="40" height="40" as="geometry" />
        </mxCell>
        <mxCell id="gYxAc6ppp29BtzVol7dR-3" value="3" style="rounded=0;whiteSpace=wrap;html=1;shadow=0;strokeColor=#6c8ebf;strokeWidth=1;fontFamily=Ubuntu;fontSize=16;fontStyle=0;fillColor=#dae8fc;" vertex="1" parent="1">
          <mxGeometry x="400" y="440" width="40" height="40" as="geometry" />
        </mxCell>
        <mxCell id="gYxAc6ppp29BtzVol7dR-4" value="9" style="rounded=0;whiteSpace=wrap;html=1;shadow=0;strokeColor=#6c8ebf;strokeWidth=1;fontFamily=Ubuntu;fontSize=16;fontStyle=0;fillColor=#dae8fc;" vertex="1" parent="1">
          <mxGeometry x="440" y="440" width="40" height="40" as="geometry" />
        </mxCell>
        <mxCell id="gYxAc6ppp29BtzVol7dR-37" style="edgeStyle=orthogonalEdgeStyle;rounded=1;orthogonalLoop=1;jettySize=auto;html=1;entryX=0;entryY=0.5;entryDx=0;entryDy=0;shadow=0;strokeColor=#6c8ebf;strokeWidth=1;fontFamily=Ubuntu;fontSize=14;fontStyle=0;endArrow=block;endFill=1;fillColor=#dae8fc;" edge="1" parent="1" source="gYxAc6ppp29BtzVol7dR-5" target="gYxAc6ppp29BtzVol7dR-14">
          <mxGeometry relative="1" as="geometry" />
        </mxCell>
        <mxCell id="gYxAc6ppp29BtzVol7dR-38" style="edgeStyle=orthogonalEdgeStyle;rounded=1;orthogonalLoop=1;jettySize=auto;html=1;entryX=0.5;entryY=1;entryDx=0;entryDy=0;shadow=0;strokeColor=#6c8ebf;strokeWidth=1;fontFamily=Ubuntu;fontSize=14;fontStyle=0;endArrow=block;endFill=1;fillColor=#dae8fc;exitX=0.5;exitY=1;exitDx=0;exitDy=0;startArrow=block;startFill=1;" edge="1" parent="1" source="gYxAc6ppp29BtzVol7dR-5" target="gYxAc6ppp29BtzVol7dR-1">
          <mxGeometry relative="1" as="geometry" />
        </mxCell>
        <mxCell id="gYxAc6ppp29BtzVol7dR-5" value="4" style="rounded=0;whiteSpace=wrap;html=1;shadow=0;strokeColor=#82b366;strokeWidth=1;fontFamily=Ubuntu;fontSize=16;fontStyle=0;fillColor=#d5e8d4;" vertex="1" parent="1">
          <mxGeometry x="480" y="440" width="40" height="40" as="geometry" />
        </mxCell>
        <mxCell id="gYxAc6ppp29BtzVol7dR-7" style="edgeStyle=orthogonalEdgeStyle;rounded=1;orthogonalLoop=1;jettySize=auto;html=1;shadow=0;strokeColor=#6c8ebf;strokeWidth=1;fontFamily=Ubuntu;fontSize=14;fontStyle=0;endArrow=block;endFill=1;fillColor=#dae8fc;" edge="1" parent="1" source="gYxAc6ppp29BtzVol7dR-6" target="gYxAc6ppp29BtzVol7dR-5">
          <mxGeometry relative="1" as="geometry" />
        </mxCell>
        <mxCell id="gYxAc6ppp29BtzVol7dR-6" value="pivot" style="text;html=1;align=center;verticalAlign=middle;whiteSpace=wrap;rounded=0;fontFamily=Ubuntu;fontSize=16;fontStyle=0;" vertex="1" parent="1">
          <mxGeometry x="470" y="380" width="60" height="30" as="geometry" />
        </mxCell>
        <mxCell id="gYxAc6ppp29BtzVol7dR-13" style="edgeStyle=orthogonalEdgeStyle;rounded=1;orthogonalLoop=1;jettySize=auto;html=1;shadow=0;strokeColor=#6c8ebf;strokeWidth=1;fontFamily=Ubuntu;fontSize=14;fontStyle=0;endArrow=block;endFill=1;fillColor=#dae8fc;" edge="1" parent="1" source="gYxAc6ppp29BtzVol7dR-10" target="gYxAc6ppp29BtzVol7dR-1">
          <mxGeometry relative="1" as="geometry" />
        </mxCell>
        <mxCell id="gYxAc6ppp29BtzVol7dR-10" value="i" style="text;html=1;align=center;verticalAlign=middle;whiteSpace=wrap;rounded=0;fontFamily=Ubuntu;fontSize=16;fontStyle=0;" vertex="1" parent="1">
          <mxGeometry x="320" y="380" width="40" height="30" as="geometry" />
        </mxCell>
        <mxCell id="gYxAc6ppp29BtzVol7dR-14" value="1" style="rounded=0;whiteSpace=wrap;html=1;shadow=0;strokeColor=#b85450;strokeWidth=1;fontFamily=Ubuntu;fontSize=16;fontStyle=0;fillColor=#f8cecc;" vertex="1" parent="1">
          <mxGeometry x="640" y="440" width="40" height="40" as="geometry" />
        </mxCell>
        <mxCell id="gYxAc6ppp29BtzVol7dR-15" value="8" style="rounded=0;whiteSpace=wrap;html=1;shadow=0;strokeColor=#6c8ebf;strokeWidth=1;fontFamily=Ubuntu;fontSize=16;fontStyle=0;fillColor=#dae8fc;" vertex="1" parent="1">
          <mxGeometry x="680" y="440" width="40" height="40" as="geometry" />
        </mxCell>
        <mxCell id="gYxAc6ppp29BtzVol7dR-16" value="3" style="rounded=0;whiteSpace=wrap;html=1;shadow=0;strokeColor=#6c8ebf;strokeWidth=1;fontFamily=Ubuntu;fontSize=16;fontStyle=0;fillColor=#dae8fc;" vertex="1" parent="1">
          <mxGeometry x="720" y="440" width="40" height="40" as="geometry" />
        </mxCell>
        <mxCell id="gYxAc6ppp29BtzVol7dR-17" value="9" style="rounded=0;whiteSpace=wrap;html=1;shadow=0;strokeColor=#6c8ebf;strokeWidth=1;fontFamily=Ubuntu;fontSize=16;fontStyle=0;fillColor=#dae8fc;" vertex="1" parent="1">
          <mxGeometry x="760" y="440" width="40" height="40" as="geometry" />
        </mxCell>
        <mxCell id="gYxAc6ppp29BtzVol7dR-81" style="edgeStyle=orthogonalEdgeStyle;rounded=1;orthogonalLoop=1;jettySize=auto;html=1;entryX=0;entryY=0.5;entryDx=0;entryDy=0;shadow=0;strokeColor=#6c8ebf;strokeWidth=1;fontFamily=Ubuntu;fontSize=14;fontStyle=0;endArrow=block;endFill=1;fillColor=#dae8fc;" edge="1" parent="1" source="gYxAc6ppp29BtzVol7dR-18" target="gYxAc6ppp29BtzVol7dR-71">
          <mxGeometry relative="1" as="geometry" />
        </mxCell>
        <mxCell id="gYxAc6ppp29BtzVol7dR-18" value="4" style="rounded=0;whiteSpace=wrap;html=1;shadow=0;strokeColor=#82b366;strokeWidth=1;fontFamily=Ubuntu;fontSize=16;fontStyle=0;fillColor=#d5e8d4;" vertex="1" parent="1">
          <mxGeometry x="800" y="440" width="40" height="40" as="geometry" />
        </mxCell>
        <mxCell id="gYxAc6ppp29BtzVol7dR-19" style="edgeStyle=orthogonalEdgeStyle;rounded=1;orthogonalLoop=1;jettySize=auto;html=1;shadow=0;strokeColor=#6c8ebf;strokeWidth=1;fontFamily=Ubuntu;fontSize=14;fontStyle=0;endArrow=block;endFill=1;fillColor=#dae8fc;" edge="1" source="gYxAc6ppp29BtzVol7dR-20" target="gYxAc6ppp29BtzVol7dR-18" parent="1">
          <mxGeometry relative="1" as="geometry" />
        </mxCell>
        <mxCell id="gYxAc6ppp29BtzVol7dR-20" value="pivot" style="text;html=1;align=center;verticalAlign=middle;whiteSpace=wrap;rounded=0;fontFamily=Ubuntu;fontSize=16;fontStyle=0;" vertex="1" parent="1">
          <mxGeometry x="790" y="380" width="60" height="30" as="geometry" />
        </mxCell>
        <mxCell id="gYxAc6ppp29BtzVol7dR-25" style="edgeStyle=orthogonalEdgeStyle;rounded=1;orthogonalLoop=1;jettySize=auto;html=1;entryX=0.25;entryY=1;entryDx=0;entryDy=0;shadow=0;strokeColor=#6c8ebf;strokeWidth=1;fontFamily=Ubuntu;fontSize=14;fontStyle=0;endArrow=block;endFill=1;fillColor=#dae8fc;exitX=0.75;exitY=1;exitDx=0;exitDy=0;" edge="1" parent="1" source="gYxAc6ppp29BtzVol7dR-14" target="gYxAc6ppp29BtzVol7dR-14">
          <mxGeometry relative="1" as="geometry">
            <Array as="points">
              <mxPoint x="670" y="510" />
              <mxPoint x="650" y="510" />
            </Array>
          </mxGeometry>
        </mxCell>
        <mxCell id="gYxAc6ppp29BtzVol7dR-36" value="1 &amp;lt; 4" style="text;html=1;align=center;verticalAlign=middle;whiteSpace=wrap;rounded=0;fontFamily=Ubuntu;fontSize=16;fontStyle=0;" vertex="1" parent="1">
          <mxGeometry x="370" y="500" width="90" height="30" as="geometry" />
        </mxCell>
        <mxCell id="gYxAc6ppp29BtzVol7dR-53" value="j = 0" style="text;html=1;align=center;verticalAlign=middle;whiteSpace=wrap;rounded=0;fontFamily=Ubuntu;fontSize=16;fontStyle=0;" vertex="1" parent="1">
          <mxGeometry x="240" y="445" width="60" height="30" as="geometry" />
        </mxCell>
        <mxCell id="gYxAc6ppp29BtzVol7dR-56" value="swap(i, j)" style="text;html=1;align=center;verticalAlign=middle;whiteSpace=wrap;rounded=0;fontFamily=Ubuntu;fontSize=16;fontStyle=0;" vertex="1" parent="1">
          <mxGeometry x="520" y="430" width="120" height="30" as="geometry" />
        </mxCell>
        <mxCell id="gYxAc6ppp29BtzVol7dR-71" value="1" style="rounded=0;whiteSpace=wrap;html=1;shadow=0;strokeColor=#6c8ebf;strokeWidth=1;fontFamily=Ubuntu;fontSize=16;fontStyle=0;fillColor=#dae8fc;" vertex="1" parent="1">
          <mxGeometry x="960" y="440" width="40" height="40" as="geometry" />
        </mxCell>
        <mxCell id="gYxAc6ppp29BtzVol7dR-72" value="8" style="rounded=0;whiteSpace=wrap;html=1;shadow=0;strokeColor=#b85450;strokeWidth=1;fontFamily=Ubuntu;fontSize=16;fontStyle=0;fillColor=#f8cecc;" vertex="1" parent="1">
          <mxGeometry x="1000" y="440" width="40" height="40" as="geometry" />
        </mxCell>
        <mxCell id="gYxAc6ppp29BtzVol7dR-73" value="3" style="rounded=0;whiteSpace=wrap;html=1;shadow=0;strokeColor=#6c8ebf;strokeWidth=1;fontFamily=Ubuntu;fontSize=16;fontStyle=0;fillColor=#dae8fc;" vertex="1" parent="1">
          <mxGeometry x="1040" y="440" width="40" height="40" as="geometry" />
        </mxCell>
        <mxCell id="gYxAc6ppp29BtzVol7dR-74" value="9" style="rounded=0;whiteSpace=wrap;html=1;shadow=0;strokeColor=#6c8ebf;strokeWidth=1;fontFamily=Ubuntu;fontSize=16;fontStyle=0;fillColor=#dae8fc;" vertex="1" parent="1">
          <mxGeometry x="1080" y="440" width="40" height="40" as="geometry" />
        </mxCell>
        <mxCell id="gYxAc6ppp29BtzVol7dR-75" value="4" style="rounded=0;whiteSpace=wrap;html=1;shadow=0;strokeColor=#82b366;strokeWidth=1;fontFamily=Ubuntu;fontSize=16;fontStyle=0;fillColor=#d5e8d4;" vertex="1" parent="1">
          <mxGeometry x="1120" y="440" width="40" height="40" as="geometry" />
        </mxCell>
        <mxCell id="gYxAc6ppp29BtzVol7dR-76" style="edgeStyle=orthogonalEdgeStyle;rounded=1;orthogonalLoop=1;jettySize=auto;html=1;shadow=0;strokeColor=#6c8ebf;strokeWidth=1;fontFamily=Ubuntu;fontSize=14;fontStyle=0;endArrow=block;endFill=1;fillColor=#dae8fc;" edge="1" source="gYxAc6ppp29BtzVol7dR-77" target="gYxAc6ppp29BtzVol7dR-75" parent="1">
          <mxGeometry relative="1" as="geometry" />
        </mxCell>
        <mxCell id="gYxAc6ppp29BtzVol7dR-77" value="pivot" style="text;html=1;align=center;verticalAlign=middle;whiteSpace=wrap;rounded=0;fontFamily=Ubuntu;fontSize=16;fontStyle=0;" vertex="1" parent="1">
          <mxGeometry x="1110" y="380" width="60" height="30" as="geometry" />
        </mxCell>
        <mxCell id="gYxAc6ppp29BtzVol7dR-79" style="edgeStyle=orthogonalEdgeStyle;rounded=1;orthogonalLoop=1;jettySize=auto;html=1;shadow=0;strokeColor=#6c8ebf;strokeWidth=1;fontFamily=Ubuntu;fontSize=14;fontStyle=0;endArrow=block;endFill=1;fillColor=#dae8fc;" edge="1" source="gYxAc6ppp29BtzVol7dR-80" parent="1">
          <mxGeometry relative="1" as="geometry">
            <mxPoint x="1020" y="440" as="targetPoint" />
          </mxGeometry>
        </mxCell>
        <mxCell id="gYxAc6ppp29BtzVol7dR-80" value="i" style="text;html=1;align=center;verticalAlign=middle;whiteSpace=wrap;rounded=0;fontFamily=Ubuntu;fontSize=16;fontStyle=0;" vertex="1" parent="1">
          <mxGeometry x="1000" y="380" width="40" height="30" as="geometry" />
        </mxCell>
        <mxCell id="gYxAc6ppp29BtzVol7dR-83" value="i += 1" style="text;html=1;align=center;verticalAlign=middle;whiteSpace=wrap;rounded=0;fontFamily=Ubuntu;fontSize=16;fontStyle=0;" vertex="1" parent="1">
          <mxGeometry x="840" y="430" width="120" height="30" as="geometry" />
        </mxCell>
        <mxCell id="gYxAc6ppp29BtzVol7dR-84" style="edgeStyle=orthogonalEdgeStyle;rounded=1;orthogonalLoop=1;jettySize=auto;html=1;shadow=0;strokeColor=#6c8ebf;strokeWidth=1;fontFamily=Ubuntu;fontSize=14;fontStyle=0;endArrow=block;endFill=1;fillColor=#dae8fc;" edge="1" source="gYxAc6ppp29BtzVol7dR-85" parent="1">
          <mxGeometry relative="1" as="geometry">
            <mxPoint x="660" y="440" as="targetPoint" />
          </mxGeometry>
        </mxCell>
        <mxCell id="gYxAc6ppp29BtzVol7dR-85" value="i" style="text;html=1;align=center;verticalAlign=middle;whiteSpace=wrap;rounded=0;fontFamily=Ubuntu;fontSize=16;fontStyle=0;" vertex="1" parent="1">
          <mxGeometry x="640" y="380" width="40" height="30" as="geometry" />
        </mxCell>
      </root>
    </mxGraphModel>
  </diagram>
</mxfile>
